<svg width="1071" height="466" viewBox="0 0 1071 466" fill="none" xmlns="http://www.w3.org/2000/svg">
<path d="M213.273 268.649C210.703 268.648 208.238 267.629 206.419 265.814L191.953 251.388C191.025 250.493 190.284 249.423 189.773 248.239C189.263 247.056 188.993 245.782 188.98 244.493C188.967 243.204 189.211 241.925 189.698 240.732C190.184 239.538 190.903 238.453 191.814 237.54C192.724 236.627 193.807 235.905 194.999 235.415C196.191 234.925 197.469 234.678 198.759 234.687C200.048 234.697 201.322 234.963 202.507 235.47C203.692 235.977 204.764 236.715 205.661 237.641L213.273 245.232L236.204 222.321C238.024 220.498 240.494 219.473 243.07 219.471C245.647 219.469 248.118 220.491 249.941 222.311C251.764 224.132 252.789 226.602 252.791 229.178C252.793 231.754 251.771 234.225 249.951 236.048L220.146 265.814C218.317 267.627 215.848 268.645 213.273 268.649V268.649ZM394.877 265.795L424.662 236.048C426.43 234.217 427.409 231.765 427.387 229.22C427.365 226.674 426.344 224.239 424.544 222.439C422.744 220.639 420.309 219.618 417.763 219.596C415.218 219.574 412.765 220.552 410.934 222.321L388.003 245.232L380.392 237.641C379.495 236.715 378.423 235.977 377.238 235.47C376.052 234.963 374.778 234.697 373.489 234.687C372.2 234.678 370.922 234.925 369.73 235.415C368.537 235.905 367.454 236.627 366.544 237.54C365.634 238.453 364.915 239.538 364.428 240.732C363.942 241.925 363.698 243.204 363.711 244.493C363.724 245.782 363.993 247.056 364.504 248.239C365.014 249.423 365.755 250.493 366.684 251.388L381.169 265.814C382.067 266.718 383.136 267.435 384.313 267.924C385.49 268.413 386.752 268.663 388.027 268.661C389.301 268.66 390.563 268.405 391.739 267.913C392.914 267.421 393.981 266.701 394.877 265.795V265.795ZM87.8992 144.693L137.548 113.918C140.351 112.183 142.666 109.764 144.276 106.887C145.885 104.01 146.736 100.771 146.747 97.4749C146.759 94.1786 145.931 90.9336 144.342 88.0456C142.753 85.1576 140.455 82.7217 137.664 80.9675L88.0157 49.7067C85.0784 47.8563 81.6986 46.8273 78.2284 46.7269C74.7583 46.6264 71.3246 47.4582 68.2852 49.1356C65.2457 50.8129 62.7115 53.2746 60.9465 56.264C59.1816 59.2535 58.2504 62.6615 58.25 66.1332V128.189C58.2557 131.647 59.1839 135.041 60.9387 138.02C62.6936 141 65.2115 143.457 68.2329 145.139C71.2543 146.821 74.6696 147.666 78.1266 147.588C81.5837 147.509 84.9572 146.51 87.8992 144.693ZM127.315 97.394L77.6667 128.189V66.1332L127.315 97.394ZM466 242.708C466 280.182 435.516 310.667 398.042 310.667C381.717 310.635 365.948 304.734 353.614 294.04C341.28 283.346 333.204 268.572 330.86 252.417H290.473C288.129 268.572 280.053 283.346 267.719 294.04C255.385 304.734 239.616 310.635 223.292 310.667C206.966 310.639 191.195 304.739 178.86 294.045C166.525 283.35 158.45 268.574 156.11 252.417H145.275C126.402 252.417 109.355 244.669 97.0833 232.184V330.083C97.0833 362.198 123.218 388.333 155.333 388.333H156.11C160.848 355.461 189.118 330.083 223.292 330.083C260.766 330.083 291.25 360.567 291.25 398.042C291.25 435.516 260.766 466 223.292 466C206.966 465.973 191.195 460.073 178.86 449.378C166.525 438.683 158.45 423.907 156.11 407.75H155.333C112.5 407.75 77.6667 372.916 77.6667 330.083V192.206C55.7548 187.703 36.0655 175.783 21.9177 158.456C7.76995 141.128 0.0290697 119.453 0 97.0833C0 43.5516 43.5516 0 97.0833 0C150.615 0 194.167 43.5516 194.167 97.0833C194.132 122.656 184.019 147.185 166.02 165.351C148.021 183.518 123.587 193.857 98.0153 194.128C100.174 205.077 106.065 214.938 114.684 222.027C123.303 229.117 134.115 232.995 145.275 233H156.11C160.848 200.128 189.118 174.75 223.292 174.75C239.617 174.777 255.388 180.677 267.723 191.372C280.058 202.067 288.133 216.843 290.473 233H330.86C333.204 216.845 341.28 202.071 353.614 191.377C365.948 180.683 381.717 174.781 398.042 174.75C435.516 174.75 466 205.234 466 242.708ZM174.75 398.042C174.75 424.798 196.535 446.583 223.292 446.583C250.048 446.583 271.833 424.798 271.833 398.042C271.833 371.285 250.048 349.5 223.292 349.5C196.535 349.5 174.75 371.285 174.75 398.042ZM97.0833 174.75C139.916 174.75 174.75 139.916 174.75 97.0833C174.75 54.2502 139.916 19.4167 97.0833 19.4167C54.2502 19.4167 19.4167 54.2502 19.4167 97.0833C19.4167 139.916 54.2502 174.75 97.0833 174.75ZM271.833 242.708C271.833 215.952 250.048 194.167 223.292 194.167C196.535 194.167 174.75 215.952 174.75 242.708C174.75 269.464 196.535 291.25 223.292 291.25C250.048 291.25 271.833 269.464 271.833 242.708ZM446.583 242.708C446.583 215.952 424.798 194.167 398.042 194.167C371.285 194.167 349.5 215.952 349.5 242.708C349.5 269.464 371.285 291.25 398.042 291.25C424.798 291.25 446.583 269.464 446.583 242.708ZM194.167 398.042C194.167 400.616 195.189 403.086 197.01 404.906C198.831 406.727 201.3 407.75 203.875 407.75C206.45 407.75 208.919 406.727 210.74 404.906C212.56 403.086 213.583 400.616 213.583 398.042C213.583 395.467 212.56 392.997 210.74 391.177C208.919 389.356 206.45 388.333 203.875 388.333C201.3 388.333 198.831 389.356 197.01 391.177C195.189 392.997 194.167 395.467 194.167 398.042ZM233 398.042C233 400.616 234.023 403.086 235.843 404.906C237.664 406.727 240.134 407.75 242.708 407.75C245.283 407.75 247.752 406.727 249.573 404.906C251.394 403.086 252.417 400.616 252.417 398.042C252.417 395.467 251.394 392.997 249.573 391.177C247.752 389.356 245.283 388.333 242.708 388.333C240.134 388.333 237.664 389.356 235.843 391.177C234.023 392.997 233 395.467 233 398.042ZM466 398.042C466 435.516 435.516 466 398.042 466C381.711 465.967 365.938 460.06 353.603 449.358C341.268 438.656 333.196 423.874 330.86 407.711C330.724 407.731 330.608 407.808 330.452 407.808L320.627 408.138H320.297C317.794 408.074 315.412 407.044 313.649 405.265C311.887 403.485 310.88 401.093 310.84 398.589C310.8 396.084 311.729 393.661 313.434 391.826C315.138 389.991 317.486 388.886 319.987 388.741L329.811 388.411C330.161 388.372 330.491 388.527 330.821 388.547C333.119 372.346 341.181 357.517 353.528 346.778C365.874 336.04 381.679 330.113 398.042 330.083C435.516 330.083 466 360.567 466 398.042ZM446.583 398.042C446.583 371.285 424.798 349.5 398.042 349.5C371.285 349.5 349.5 371.285 349.5 398.042C349.5 424.798 371.285 446.583 398.042 446.583C424.798 446.583 446.583 424.798 446.583 398.042Z" fill="#0A66C2"/>
<line x1="572.5" y1="41" x2="572.5" y2="466" stroke="#C4C4C4" stroke-width="11"/>
<path d="M802.375 68H1032.62C1042.8 68 1052.56 72.0457 1059.76 79.2471C1066.96 86.4485 1071 96.2157 1071 106.4V413.6C1071 423.784 1066.96 433.552 1059.76 440.753C1052.56 447.954 1042.8 452 1032.62 452H802.375C792.197 452 782.436 447.954 775.24 440.753C768.043 433.552 764 423.784 764 413.6V106.4C764 96.2157 768.043 86.4485 775.24 79.2471C782.436 72.0457 792.197 68 802.375 68V68ZM931.891 288.8C984.656 288.8 998.855 249.824 1002.5 229.28C1019.96 223.712 1032.62 207.392 1032.62 188C1032.62 164 1013.44 144.8 989.453 144.8C965.469 144.8 946.281 164 946.281 188C946.281 206.048 957.218 221.6 972.952 227.936C968.731 240.8 955.875 260 917.5 260C891.021 260 872.601 266.72 859.938 276.128V199.904C876.631 193.952 888.719 178.016 888.719 159.2C888.719 135.2 869.531 116 845.547 116C821.562 116 802.375 135.2 802.375 159.2C802.375 178.016 814.463 193.952 831.156 199.904V320.096C814.463 326.048 802.375 341.984 802.375 360.8C802.375 384.8 821.562 404 845.547 404C869.531 404 888.719 384.8 888.719 360.8C888.719 342.944 877.974 327.2 862.432 321.056C867.804 308 883.538 288.8 931.891 288.8ZM845.547 346.4C849.364 346.4 853.024 347.917 855.723 350.618C858.421 353.318 859.938 356.981 859.938 360.8C859.938 364.619 858.421 368.282 855.723 370.982C853.024 373.683 849.364 375.2 845.547 375.2C841.73 375.2 838.07 373.683 835.371 370.982C832.672 368.282 831.156 364.619 831.156 360.8C831.156 356.981 832.672 353.318 835.371 350.618C838.07 347.917 841.73 346.4 845.547 346.4ZM845.547 144.8C849.364 144.8 853.024 146.317 855.723 149.018C858.421 151.718 859.938 155.381 859.938 159.2C859.938 163.019 858.421 166.682 855.723 169.382C853.024 172.083 849.364 173.6 845.547 173.6C841.73 173.6 838.07 172.083 835.371 169.382C832.672 166.682 831.156 163.019 831.156 159.2C831.156 155.381 832.672 151.718 835.371 149.018C838.07 146.317 841.73 144.8 845.547 144.8ZM989.453 173.6C993.27 173.6 996.93 175.117 999.629 177.818C1002.33 180.518 1003.84 184.181 1003.84 188C1003.84 191.819 1002.33 195.482 999.629 198.182C996.93 200.883 993.27 202.4 989.453 202.4C985.636 202.4 981.976 200.883 979.277 198.182C976.579 195.482 975.062 191.819 975.062 188C975.062 184.181 976.579 180.518 979.277 177.818C981.976 175.117 985.636 173.6 989.453 173.6Z" fill="#5D5D5D"/>
</svg>
